<?xml version="1.0" standalone="no"?>
<!DOCTYPE svg PUBLIC "-//W3C//DTD SVG 1.1//EN" "http://www.w3.org/Graphics/SVG/1.1/DTD/svg11.dtd">
<svg version="1.1" xmlns="http://www.w3.org/2000/svg" viewBox="0 0 111.48369569875308 125.53287188749295" width="111.48369569875308" height="125.53287188749295"><!-- svg-source:excalidraw --><metadata></metadata><defs><style class="style-fonts">
      </style></defs><g stroke-linecap="round"><g transform="translate(40.6540415500524 21.49275138690136) rotate(0 27 33)"><path d="M-0.74 -1.09 C8.64 10.08, 46.23 54.62, 55.16 65.91 M1.07 0.96 C10.49 12.42, 45.81 56.78, 54.82 67.4" stroke="#1e1e1e" stroke-width="2" fill="none"></path></g></g><mask></mask><g stroke-linecap="round"><g transform="translate(17.654041550052398 34.49275138690136) rotate(0 29.5 35)"><path d="M1.08 0 C11.05 11.36, 49.65 57.47, 59.2 68.98 M0.18 -1.05 C10.07 10.36, 48.84 58.16, 58.35 69.98" stroke="#1e1e1e" stroke-width="2" fill="none"></path></g></g><mask></mask><g stroke-linecap="round"><g transform="translate(96.6540415500524 88.49275138690136) rotate(0 2 13.5)"><path d="M0.33 -0.53 C1.03 3.86, 3.5 21.92, 4.18 26.56 M-0.17 0.38 C0.47 4.82, 3.11 22.7, 3.85 27.04" stroke="#1e1e1e" stroke-width="2" fill="none"></path></g></g><mask></mask><g stroke-linecap="round"><g transform="translate(75.6540415500524 103.49275138690136) rotate(0 12.5 5.5)"><path d="M0.14 0.05 C4.2 1.72, 20.55 8.76, 24.73 10.53 M-0.46 -0.39 C3.77 1.56, 21.58 9.08, 25.83 10.99" stroke="#1e1e1e" stroke-width="2" fill="none"></path></g></g><mask></mask><g stroke-linecap="round"><g transform="translate(91.6540415500524 108.49275138690136) rotate(0 3.5 -2.5)"><path d="M0.02 -0.1 C1.26 -0.94, 6.24 -4.28, 7.35 -5.15 M-0.4 -0.45 C0.84 -1.24, 5.96 -4.01, 7.25 -4.78" stroke="#1e1e1e" stroke-width="2" fill="none"></path></g></g><mask></mask><g stroke-linecap="round"><g transform="translate(19.654041550052398 32.49275138690136) rotate(0 8.5 -7.5)"><path d="M0.68 -1.02 C3.33 -3.33, 13.83 -11.73, 16.43 -13.91 M-0.42 1.06 C1.97 -1.56, 12.58 -12.63, 15.19 -15.46" stroke="#1e1e1e" stroke-width="2" fill="none"></path></g></g><mask></mask><g stroke-linecap="round"><g transform="translate(16.654041550052398 32.49275138690136) rotate(0 -3 -4.5)"><path d="M0.1 0.26 C-0.87 -1.21, -4.74 -7.31, -5.78 -8.82 M-0.27 0.08 C-1.28 -1.49, -4.92 -7.77, -5.94 -9.36" stroke="#1e1e1e" stroke-width="2" fill="none"></path></g></g><mask></mask><g stroke-linecap="round"><g transform="translate(37.6540415500524 17.49275138690136) rotate(0 -6 -3.5)"><path d="M0.32 0.27 C-1.82 -0.95, -10.19 -6.24, -12.29 -7.49 M-0.18 -0.07 C-2.18 -1.22, -9.11 -5.93, -11.21 -7.05" stroke="#1e1e1e" stroke-width="2" fill="none"></path></g></g><mask></mask><g stroke-linecap="round"><g transform="translate(10.654041550052398 23.49275138690136) rotate(0 7 -6.5)"><path d="M0.01 -0.46 C2.29 -2.75, 11.58 -11.13, 13.91 -13.22 M-0.65 0.49 C1.53 -1.49, 11.05 -10.48, 13.44 -12.64" stroke="#1e1e1e" stroke-width="2" fill="none"></path></g></g><mask></mask><g stroke-linecap="round"><g transform="translate(75.6540415500524 101.49275138690136) rotate(0 10 -6.5)"><path d="M-0.08 -0.04 C1.81 -0.86, 7.4 -3.08, 10.81 -5.33 C14.22 -7.58, 18.79 -12.21, 20.39 -13.53 M-0.78 -0.53 C1.05 -1.25, 6.77 -2.69, 10.28 -4.8 C13.78 -6.92, 18.51 -11.86, 20.24 -13.2" stroke="#1e1e1e" stroke-width="2" fill="none"></path></g></g><mask></mask><g transform="translate(94.6540415500524 108.49275138690136) rotate(0 0.00004999999998744897 0.00005000000000165983)" stroke="none"><path fill="#1e1e1e" d="M 1.57,-1.57 Q 1.57,-1.57 1.77,-1.27 1.98,-0.98 2.09,-0.64 2.20,-0.29 2.19,0.05 2.18,0.41 2.05,0.75 1.93,1.09 1.70,1.37 1.48,1.65 1.18,1.84 0.87,2.04 0.52,2.12 0.18,2.21 -0.17,2.18 -0.53,2.15 -0.86,2.01 -1.19,1.87 -1.46,1.63 -1.73,1.39 -1.90,1.07 -2.08,0.76 -2.15,0.41 -2.21,0.05 -2.17,-0.29 -2.12,-0.65 -1.96,-0.97 -1.80,-1.29 -1.54,-1.54 -1.29,-1.80 -0.97,-1.96 -0.65,-2.12 -0.29,-2.17 0.06,-2.21 0.41,-2.15 0.76,-2.08 1.07,-1.90 1.39,-1.73 1.63,-1.46 1.87,-1.19 2.01,-0.86 2.15,-0.53 2.18,-0.17 2.21,0.18 2.12,0.52 2.03,0.87 1.84,1.18 1.65,1.48 1.37,1.70 1.09,1.93 0.75,2.05 0.41,2.18 0.05,2.19 -0.30,2.20 -0.64,2.09 -0.98,1.98 -1.27,1.77 -1.57,1.56 -1.57,1.57 -1.57,1.57 -1.73,1.35 -1.90,1.14 -2.01,0.90 -2.12,0.66 -2.16,0.39 -2.21,0.13 -2.20,-0.13 -2.18,-0.40 -2.10,-0.65 -2.02,-0.91 -1.88,-1.14 -1.74,-1.36 -1.55,-1.55 -1.36,-1.74 -1.14,-1.88 -0.91,-2.02 -0.65,-2.10 -0.40,-2.18 -0.13,-2.20 0.13,-2.21 0.39,-2.16 0.66,-2.12 0.90,-2.01 1.14,-1.90 1.35,-1.73 1.57,-1.57 1.57,-1.57 L 1.57,-1.57 Z"></path></g><g transform="translate(96.6540415500524 108.49275138690136) rotate(0 0.00004999999998744897 0.00005000000000165983)" stroke="none"><path fill="#1e1e1e" d="M 1.57,-1.57 Q 1.57,-1.57 1.77,-1.27 1.98,-0.98 2.09,-0.64 2.20,-0.29 2.19,0.05 2.18,0.41 2.05,0.75 1.93,1.09 1.70,1.37 1.48,1.65 1.18,1.84 0.87,2.04 0.52,2.12 0.18,2.21 -0.17,2.18 -0.53,2.15 -0.86,2.01 -1.19,1.87 -1.46,1.63 -1.73,1.39 -1.90,1.07 -2.08,0.76 -2.15,0.41 -2.21,0.05 -2.17,-0.29 -2.12,-0.65 -1.96,-0.97 -1.80,-1.29 -1.54,-1.54 -1.29,-1.80 -0.97,-1.96 -0.65,-2.12 -0.29,-2.17 0.06,-2.21 0.41,-2.15 0.76,-2.08 1.07,-1.90 1.39,-1.73 1.63,-1.46 1.87,-1.19 2.01,-0.86 2.15,-0.53 2.18,-0.17 2.21,0.18 2.12,0.52 2.03,0.87 1.84,1.18 1.65,1.48 1.37,1.70 1.09,1.93 0.75,2.05 0.41,2.18 0.05,2.19 -0.30,2.20 -0.64,2.09 -0.98,1.98 -1.27,1.77 -1.57,1.56 -1.57,1.57 -1.57,1.57 -1.73,1.35 -1.90,1.14 -2.01,0.90 -2.12,0.66 -2.16,0.39 -2.21,0.13 -2.20,-0.13 -2.18,-0.40 -2.10,-0.65 -2.02,-0.91 -1.88,-1.14 -1.74,-1.36 -1.55,-1.55 -1.36,-1.74 -1.14,-1.88 -0.91,-2.02 -0.65,-2.10 -0.40,-2.18 -0.13,-2.20 0.13,-2.21 0.39,-2.16 0.66,-2.12 0.90,-2.01 1.14,-1.90 1.35,-1.73 1.57,-1.57 1.57,-1.57 L 1.57,-1.57 Z"></path></g><g transform="translate(97.6540415500524 109.49275138690136) rotate(0 -0.5 0)" stroke="none"><path d="M1.14 1.28 C1.03 1.27, -0.63 0.61, -1.02 0.29 C-1.41 -0.04, -1.19 -0.57, -1.2 -0.68" stroke="none" stroke-width="0" fill="#f08c00" fill-rule="evenodd"></path><path fill="#1e1e1e" d="M 2.12,-0.66 Q 2.12,-0.66 2.15,-0.13 2.18,0.40 1.96,0.88 1.74,1.36 1.32,1.69 0.91,2.02 0.38,2.12 -0.13,2.21 -0.64,2.05 -1.14,1.90 -1.52,1.52 -1.90,1.14 -2.05,0.64 -2.21,0.13 -2.12,-0.38 -2.02,-0.91 -1.69,-1.32 -1.36,-1.74 -0.88,-1.96 -0.39,-2.18 0.13,-2.15 0.66,-2.11 1.11,-1.84 1.57,-1.56 1.84,-1.11 L 2.12,-0.66 Z"></path></g></svg>