<?xml version="1.0" standalone="no"?>
<!DOCTYPE svg PUBLIC "-//W3C//DTD SVG 1.1//EN" "http://www.w3.org/Graphics/SVG/1.1/DTD/svg11.dtd">
<svg version="1.1" xmlns="http://www.w3.org/2000/svg" viewBox="0 0 136 139.5" width="136" height="139.5"><!-- svg-source:excalidraw --><metadata></metadata><defs><style class="style-fonts">
      </style></defs><g stroke-linecap="round"><g transform="translate(68.01897592385967 82.5) rotate(0 0 23.5)"><path d="M0 0 C0.47 11.3, 0.13 20.51, 0 47 M0 0 C0.3 15.59, -0.55 31.33, 0 47" stroke="#1e1e1e" stroke-width="2" fill="none"></path></g><g transform="translate(68.01897592385967 82.5) rotate(0 0 23.5)"><path d="M-8.33 25.03 C-6.08 30.64, -4.51 34.13, 0 47 M-8.33 25.03 C-5.22 32.36, -3.32 39.84, 0 47" stroke="#1e1e1e" stroke-width="2" fill="none"></path></g><g transform="translate(68.01897592385967 82.5) rotate(0 0 23.5)"><path d="M7.74 24.81 C6.33 30.43, 4.23 33.98, 0 47 M7.74 24.81 C5.54 32.2, 2.13 39.75, 0 47" stroke="#1e1e1e" stroke-width="2" fill="none"></path></g></g><mask></mask><g stroke-linecap="round"><g transform="translate(68 56) rotate(0 0 -23)"><path d="M0 0 C-0.17 -11.91, -0.64 -23.13, 0 -46 M0 0 C-0.45 -13.79, 0 -26.98, 0 -46" stroke="#1e1e1e" stroke-width="2" fill="none"></path></g><g transform="translate(68 56) rotate(0 0 -23)"><path d="M7.75 -24.34 C5.66 -30.11, 3.22 -35.15, 0 -46 M7.75 -24.34 C5.07 -30.94, 3.22 -36.93, 0 -46" stroke="#1e1e1e" stroke-width="2" fill="none"></path></g><g transform="translate(68 56) rotate(0 0 -23)"><path d="M-7.99 -24.43 C-6.08 -30.1, -4.52 -35.13, 0 -46 M-7.99 -24.43 C-6.01 -30.97, -3.2 -36.93, 0 -46" stroke="#1e1e1e" stroke-width="2" fill="none"></path></g></g><mask></mask><g stroke-linecap="round"><g transform="translate(80 68) rotate(0 23 -0.5)"><path d="M0 0 C12.95 -0.53, 27.45 0.01, 46 -1 M0 0 C16.77 -0.74, 34.5 -0.75, 46 -1" stroke="#1e1e1e" stroke-width="2" fill="none"></path></g><g transform="translate(80 68) rotate(0 23 -0.5)"><path d="M24.51 7.21 C30.19 4.49, 37.44 2.9, 46 -1 M24.51 7.21 C32.12 3.86, 40.66 1.15, 46 -1" stroke="#1e1e1e" stroke-width="2" fill="none"></path></g><g transform="translate(80 68) rotate(0 23 -0.5)"><path d="M24.26 -8.53 C30.05 -6.59, 37.37 -3.52, 46 -1 M24.26 -8.53 C31.9 -5.98, 40.53 -2.79, 46 -1" stroke="#1e1e1e" stroke-width="2" fill="none"></path></g></g><mask></mask><g stroke-linecap="round"><g transform="translate(55 69) rotate(0 -22.5 0)"><path d="M0 0 C-17.83 -0.22, -33.74 0.53, -45 0 M0 0 C-12.03 0.02, -24.28 0.26, -45 0" stroke="#1e1e1e" stroke-width="2" fill="none"></path></g><g transform="translate(55 69) rotate(0 -22.5 0)"><path d="M-23.8 -7.54 C-32.74 -5.02, -39.72 -1.45, -45 0 M-23.8 -7.54 C-29.26 -5.46, -34.98 -3.15, -45 0" stroke="#1e1e1e" stroke-width="2" fill="none"></path></g><g transform="translate(55 69) rotate(0 -22.5 0)"><path d="M-23.91 7.85 C-32.74 4.6, -39.69 2.4, -45 0 M-23.91 7.85 C-29.42 5.71, -35.11 3.79, -45 0" stroke="#1e1e1e" stroke-width="2" fill="none"></path></g></g><mask></mask></svg>