<?xml version="1.0" standalone="no"?>
<!DOCTYPE svg PUBLIC "-//W3C//DTD SVG 1.1//EN" "http://www.w3.org/Graphics/SVG/1.1/DTD/svg11.dtd">
<svg version="1.1" xmlns="http://www.w3.org/2000/svg" viewBox="0 0 275.0488743280898 185.50157918781042" width="275.0488743280898" height="185.50157918781042"><!-- svg-source:excalidraw --><metadata></metadata><defs><style class="style-fonts">
      </style></defs><g stroke-linecap="round" transform="translate(128.04887432808982 10) rotate(0 31 30.5)"><path d="M44.39 2.43 C50.05 4.71, 55.52 11.74, 58.35 17.56 C61.18 23.38, 62.99 31.15, 61.36 37.35 C59.74 43.54, 54.11 50.66, 48.58 54.7 C43.04 58.75, 34.58 62.15, 28.14 61.6 C21.71 61.06, 14.56 56.22, 9.98 51.43 C5.4 46.64, 1.56 39.34, 0.65 32.85 C-0.25 26.36, 0.78 17.72, 4.54 12.48 C8.3 7.25, 16.46 2.86, 23.22 1.45 C29.97 0.04, 41.29 3.59, 45.07 4.03 C48.85 4.47, 45.98 3.71, 45.88 4.09 M29.89 -1.44 C36.32 -2.1, 44.95 1.95, 50.07 6.15 C55.18 10.36, 59.35 17.7, 60.59 23.79 C61.83 29.88, 60.49 36.98, 57.5 42.7 C54.5 48.42, 48.7 55.09, 42.64 58.12 C36.57 61.15, 27.41 62.46, 21.1 60.87 C14.78 59.29, 8.34 54.07, 4.76 48.6 C1.19 43.14, -1.07 34.75, -0.36 28.09 C0.35 21.43, 3.9 13.38, 9.04 8.64 C14.17 3.89, 27.08 1.03, 30.43 -0.36 C33.79 -1.75, 29.53 -0.28, 29.17 0.3" stroke="#1e1e1e" stroke-width="4" fill="none"></path></g><g stroke-linecap="round"><g transform="translate(88.04887432808982 175) rotate(0 60 -51.5)"><path d="M-0.59 0.5 C3.93 -10.77, 16.26 -50.21, 27.53 -67.46 C38.8 -84.71, 53.8 -103.22, 67.05 -103 C80.31 -102.79, 98.21 -82.66, 107.06 -66.19 C115.91 -49.71, 118.03 -14.8, 120.16 -4.16 M1.3 -0.28 C5.68 -11.93, 15.5 -52.39, 26.86 -69.3 C38.22 -86.2, 56.56 -102.29, 69.45 -101.69 C82.34 -101.09, 95.98 -81.92, 104.2 -65.71 C112.42 -49.49, 115.94 -14.83, 118.77 -4.38" stroke="#1e1e1e" stroke-width="4" fill="none"></path></g></g><mask></mask><g stroke-linecap="round"><g transform="translate(188.04887432808982 98) rotate(0 37.5 15)"><path d="M0.16 -0.41 C2.75 -2.91, 9.37 -12.83, 15.83 -15.37 C22.28 -17.91, 31.86 -18.07, 38.88 -15.68 C45.91 -13.28, 51.99 -10.98, 57.98 -1 C63.97 8.97, 72.03 36.6, 74.8 44.18 M-1.21 -1.68 C1.26 -3.97, 8.68 -11.86, 15.31 -14.03 C21.94 -16.2, 31.34 -17.07, 38.58 -14.71 C45.82 -12.36, 52.97 -9.71, 58.74 0.1 C64.52 9.91, 70.39 36.36, 73.23 44.14" stroke="#1e1e1e" stroke-width="4" fill="none"></path></g></g><mask></mask><g stroke-linecap="round" transform="translate(209.04887432808982 29) rotate(0 28 28)"><path d="M31.02 1.08 C36.87 1.32, 44.83 4.8, 48.93 8.94 C53.04 13.07, 55.28 20, 55.65 25.92 C56.01 31.84, 54.74 39.54, 51.11 44.47 C47.49 49.41, 39.99 53.96, 33.89 55.51 C27.79 57.06, 19.74 56.45, 14.51 53.77 C9.28 51.09, 4.77 45.24, 2.5 39.44 C0.24 33.64, -0.67 24.99, 0.93 18.97 C2.54 12.95, 6.2 6.14, 12.15 3.34 C18.11 0.54, 32.05 2.19, 36.65 2.19 C41.25 2.18, 40.07 2.87, 39.74 3.29 M21.84 0.42 C27.19 -1.46, 35.29 -0.42, 40.56 2.28 C45.84 4.99, 51.36 10.66, 53.51 16.66 C55.66 22.66, 55.26 32.31, 53.48 38.28 C51.7 44.25, 47.8 49.64, 42.84 52.46 C37.88 55.29, 29.79 56.39, 23.72 55.24 C17.66 54.09, 10.65 49.75, 6.46 45.56 C2.28 41.38, -1.36 36, -1.4 30.12 C-1.45 24.23, 2.23 15.27, 6.19 10.26 C10.16 5.26, 19.43 1.77, 22.38 0.08 C25.33 -1.62, 24 -0.69, 23.89 0.1" stroke="#1e1e1e" stroke-width="4" fill="none"></path></g><g stroke-linecap="round"><g transform="translate(109.04887432808982 115) rotate(0 -49 8)"><path d="M-0.78 0.41 C-2.09 -3.65, -2.31 -18.56, -7.35 -25.11 C-12.39 -31.65, -22.95 -38.22, -31.04 -38.86 C-39.14 -39.51, -48.75 -35.53, -55.92 -28.99 C-63.08 -22.45, -67.15 -13.43, -74.04 0.36 C-80.92 14.14, -93.36 44.93, -97.21 53.74 M1.01 -0.42 C-0.44 -4.3, -2.48 -17.89, -7.96 -24.15 C-13.43 -30.41, -23.88 -37.38, -31.83 -38 C-39.77 -38.62, -48.87 -34.37, -55.63 -27.88 C-62.39 -21.39, -65.16 -12.48, -72.39 0.93 C-79.63 14.34, -94.49 43.54, -99.05 52.57" stroke="#1e1e1e" stroke-width="4" fill="none"></path></g></g><mask></mask><g stroke-linecap="round" transform="translate(45.04887432808982 22) rotate(0 27 27)"><path d="M20.04 0.41 C25.22 -1.38, 33.86 -0.79, 39.13 1.63 C44.4 4.05, 49.44 9.38, 51.67 14.92 C53.9 20.46, 54.08 29.29, 52.51 34.88 C50.93 40.47, 46.95 45.2, 42.21 48.44 C37.46 51.69, 29.7 54.79, 24.03 54.34 C18.36 53.89, 12.1 50.02, 8.19 45.74 C4.28 41.46, 0.99 34.34, 0.59 28.65 C0.19 22.95, 2.31 16.2, 5.79 11.56 C9.27 6.92, 18.58 2.73, 21.49 0.8 C24.4 -1.13, 23.06 -0.55, 23.25 -0.02 M25.89 -1.3 C31.27 -1.6, 39.08 2.53, 43.9 6.05 C48.71 9.58, 53.42 14.19, 54.77 19.84 C56.12 25.5, 54.65 34.67, 52.01 39.97 C49.38 45.28, 44.57 49.76, 38.94 51.68 C33.31 53.59, 24.21 53.11, 18.25 51.47 C12.28 49.84, 6.12 46.53, 3.13 41.86 C0.15 37.19, -0.64 29.01, 0.32 23.44 C1.27 17.88, 4.86 12.41, 8.86 8.47 C12.87 4.53, 21.64 0.99, 24.34 -0.19 C27.05 -1.37, 24.72 0.91, 25.1 1.42" stroke="#1e1e1e" stroke-width="4" fill="none"></path></g><g stroke-linecap="round"><g transform="translate(143.04887432808982 79) rotate(0 4 9)"><path d="M0.28 0.54 C1.55 3.55, 6.76 14.58, 8.11 17.58 M-0.25 0.35 C0.92 3.45, 6.32 15.17, 7.73 18.07" stroke="#e03131" stroke-width="1" fill="none"></path></g></g><mask></mask><g stroke-linecap="round"><g transform="translate(166.04887432808982 83) rotate(0 -4.5 8.5)"><path d="M0.25 -0.46 C-1.31 2.37, -7.8 14.26, -9.33 17.13 M-0.28 0.49 C-1.66 3.14, -6.77 13.45, -8.26 16.23" stroke="#e03131" stroke-width="1" fill="none"></path></g></g><mask></mask><g stroke-linecap="round"><g transform="translate(153.04887432808982 98) rotate(0 -8 29)"><path d="M-0.06 -0.49 C-2.89 9.19, -13.81 47.78, -16.51 57.6 M-1.55 -1.8 C-4.63 8.1, -15.13 49.24, -17.73 58.93" stroke="#e03131" stroke-width="1" fill="none"></path></g></g><mask></mask><g stroke-linecap="round"><g transform="translate(138.04887432808982 155) rotate(0 3 5)"><path d="M0.49 0.48 C1.6 2.14, 5.54 8.45, 6.53 10.09 M0.07 0.26 C1.18 1.72, 5.33 7.64, 6.37 9.17" stroke="#e03131" stroke-width="1" fill="none"></path></g></g><mask></mask><g stroke-linecap="round"><g transform="translate(145.04887432808982 166) rotate(0 5 -5.5)"><path d="M-0.5 -0.3 C1.07 -2.1, 8.11 -9.24, 9.84 -11.01 M0.25 0.73 C1.69 -0.95, 7.8 -8.48, 9.33 -10.31" stroke="#e03131" stroke-width="1" fill="none"></path></g></g><mask></mask><g stroke-linecap="round"><g transform="translate(156.04887432808982 154) rotate(0 1 -28)"><path d="M0.29 0.35 C0.53 -9.04, 1.25 -46.58, 1.61 -55.82 M-1.02 -0.52 C-0.98 -9.72, -0.03 -44.78, 0.45 -54.19" stroke="#e03131" stroke-width="1" fill="none"></path></g></g><mask></mask><g transform="translate(154.04887432808982 85) rotate(0 0.00004999999998744897 0.00005000000000165983)" stroke="none"><path fill="#e03131" d="M 1.57,-1.57 Q 1.57,-1.57 1.77,-1.27 1.98,-0.98 2.09,-0.64 2.20,-0.29 2.19,0.05 2.18,0.41 2.05,0.75 1.93,1.09 1.70,1.37 1.48,1.65 1.18,1.84 0.87,2.04 0.52,2.12 0.18,2.21 -0.17,2.18 -0.53,2.15 -0.86,2.01 -1.19,1.87 -1.46,1.63 -1.73,1.39 -1.90,1.07 -2.08,0.76 -2.15,0.41 -2.21,0.05 -2.17,-0.29 -2.12,-0.65 -1.96,-0.97 -1.80,-1.29 -1.54,-1.54 -1.29,-1.80 -0.97,-1.96 -0.65,-2.12 -0.29,-2.17 0.06,-2.21 0.41,-2.15 0.76,-2.08 1.07,-1.90 1.39,-1.73 1.63,-1.46 1.87,-1.19 2.01,-0.86 2.15,-0.53 2.18,-0.17 2.21,0.18 2.12,0.52 2.03,0.87 1.84,1.18 1.65,1.48 1.37,1.70 1.09,1.93 0.75,2.05 0.41,2.18 0.05,2.19 -0.30,2.20 -0.64,2.09 -0.98,1.98 -1.27,1.77 -1.57,1.56 -1.57,1.57 -1.57,1.57 -1.73,1.35 -1.90,1.14 -2.01,0.90 -2.12,0.66 -2.16,0.39 -2.21,0.13 -2.20,-0.13 -2.18,-0.40 -2.10,-0.65 -2.02,-0.91 -1.88,-1.14 -1.74,-1.36 -1.55,-1.55 -1.36,-1.74 -1.14,-1.88 -0.91,-2.02 -0.65,-2.10 -0.40,-2.18 -0.13,-2.20 0.13,-2.21 0.39,-2.16 0.66,-2.12 0.90,-2.01 1.14,-1.90 1.35,-1.73 1.57,-1.57 1.57,-1.57 L 1.57,-1.57 Z"></path></g><g transform="translate(155.04887432808982 84) rotate(0 0.00004999999998744897 0.00005000000000165983)" stroke="none"><path fill="#e03131" d="M 1.57,-1.57 Q 1.57,-1.57 1.77,-1.27 1.98,-0.98 2.09,-0.64 2.20,-0.29 2.19,0.05 2.18,0.41 2.05,0.75 1.93,1.09 1.70,1.37 1.48,1.65 1.18,1.84 0.87,2.04 0.52,2.12 0.18,2.21 -0.17,2.18 -0.53,2.15 -0.86,2.01 -1.19,1.87 -1.46,1.63 -1.73,1.39 -1.90,1.07 -2.08,0.76 -2.15,0.41 -2.21,0.05 -2.17,-0.29 -2.12,-0.65 -1.96,-0.97 -1.80,-1.29 -1.54,-1.54 -1.29,-1.80 -0.97,-1.96 -0.65,-2.12 -0.29,-2.17 0.06,-2.21 0.41,-2.15 0.76,-2.08 1.07,-1.90 1.39,-1.73 1.63,-1.46 1.87,-1.19 2.01,-0.86 2.15,-0.53 2.18,-0.17 2.21,0.18 2.12,0.52 2.03,0.87 1.84,1.18 1.65,1.48 1.37,1.70 1.09,1.93 0.75,2.05 0.41,2.18 0.05,2.19 -0.30,2.20 -0.64,2.09 -0.98,1.98 -1.27,1.77 -1.57,1.56 -1.57,1.57 -1.57,1.57 -1.73,1.35 -1.90,1.14 -2.01,0.90 -2.12,0.66 -2.16,0.39 -2.21,0.13 -2.20,-0.13 -2.18,-0.40 -2.10,-0.65 -2.02,-0.91 -1.88,-1.14 -1.74,-1.36 -1.55,-1.55 -1.36,-1.74 -1.14,-1.88 -0.91,-2.02 -0.65,-2.10 -0.40,-2.18 -0.13,-2.20 0.13,-2.21 0.39,-2.16 0.66,-2.12 0.90,-2.01 1.14,-1.90 1.35,-1.73 1.57,-1.57 1.57,-1.57 L 1.57,-1.57 Z"></path></g><g transform="translate(155.04887432808982 84) rotate(0 0.00004999999998744897 0.00005000000000165983)" stroke="none"><path fill="#e03131" d="M 1.57,-1.57 Q 1.57,-1.57 1.77,-1.27 1.98,-0.98 2.09,-0.64 2.20,-0.29 2.19,0.05 2.18,0.41 2.05,0.75 1.93,1.09 1.70,1.37 1.48,1.65 1.18,1.84 0.87,2.04 0.52,2.12 0.18,2.21 -0.17,2.18 -0.53,2.15 -0.86,2.01 -1.19,1.87 -1.46,1.63 -1.73,1.39 -1.90,1.07 -2.08,0.76 -2.15,0.41 -2.21,0.05 -2.17,-0.29 -2.12,-0.65 -1.96,-0.97 -1.80,-1.29 -1.54,-1.54 -1.29,-1.80 -0.97,-1.96 -0.65,-2.12 -0.29,-2.17 0.06,-2.21 0.41,-2.15 0.76,-2.08 1.07,-1.90 1.39,-1.73 1.63,-1.46 1.87,-1.19 2.01,-0.86 2.15,-0.53 2.18,-0.17 2.21,0.18 2.12,0.52 2.03,0.87 1.84,1.18 1.65,1.48 1.37,1.70 1.09,1.93 0.75,2.05 0.41,2.18 0.05,2.19 -0.30,2.20 -0.64,2.09 -0.98,1.98 -1.27,1.77 -1.57,1.56 -1.57,1.57 -1.57,1.57 -1.73,1.35 -1.90,1.14 -2.01,0.90 -2.12,0.66 -2.16,0.39 -2.21,0.13 -2.20,-0.13 -2.18,-0.40 -2.10,-0.65 -2.02,-0.91 -1.88,-1.14 -1.74,-1.36 -1.55,-1.55 -1.36,-1.74 -1.14,-1.88 -0.91,-2.02 -0.65,-2.10 -0.40,-2.18 -0.13,-2.20 0.13,-2.21 0.39,-2.16 0.66,-2.12 0.90,-2.01 1.14,-1.90 1.35,-1.73 1.57,-1.57 1.57,-1.57 L 1.57,-1.57 Z"></path></g><g transform="translate(155.04887432808982 84) rotate(0 0.00004999999998744897 0.00005000000000165983)" stroke="none"><path fill="#e03131" d="M 1.57,-1.57 Q 1.57,-1.57 1.77,-1.27 1.98,-0.98 2.09,-0.64 2.20,-0.29 2.19,0.05 2.18,0.41 2.05,0.75 1.93,1.09 1.70,1.37 1.48,1.65 1.18,1.84 0.87,2.04 0.52,2.12 0.18,2.21 -0.17,2.18 -0.53,2.15 -0.86,2.01 -1.19,1.87 -1.46,1.63 -1.73,1.39 -1.90,1.07 -2.08,0.76 -2.15,0.41 -2.21,0.05 -2.17,-0.29 -2.12,-0.65 -1.96,-0.97 -1.80,-1.29 -1.54,-1.54 -1.29,-1.80 -0.97,-1.96 -0.65,-2.12 -0.29,-2.17 0.06,-2.21 0.41,-2.15 0.76,-2.08 1.07,-1.90 1.39,-1.73 1.63,-1.46 1.87,-1.19 2.01,-0.86 2.15,-0.53 2.18,-0.17 2.21,0.18 2.12,0.52 2.03,0.87 1.84,1.18 1.65,1.48 1.37,1.70 1.09,1.93 0.75,2.05 0.41,2.18 0.05,2.19 -0.30,2.20 -0.64,2.09 -0.98,1.98 -1.27,1.77 -1.57,1.56 -1.57,1.57 -1.57,1.57 -1.73,1.35 -1.90,1.14 -2.01,0.90 -2.12,0.66 -2.16,0.39 -2.21,0.13 -2.20,-0.13 -2.18,-0.40 -2.10,-0.65 -2.02,-0.91 -1.88,-1.14 -1.74,-1.36 -1.55,-1.55 -1.36,-1.74 -1.14,-1.88 -0.91,-2.02 -0.65,-2.10 -0.40,-2.18 -0.13,-2.20 0.13,-2.21 0.39,-2.16 0.66,-2.12 0.90,-2.01 1.14,-1.90 1.35,-1.73 1.57,-1.57 1.57,-1.57 L 1.57,-1.57 Z"></path></g><g transform="translate(155.04887432808982 84) rotate(0 0.00004999999998744897 0.00005000000000165983)" stroke="none"><path fill="#e03131" d="M 1.57,-1.57 Q 1.57,-1.57 1.77,-1.27 1.98,-0.98 2.09,-0.64 2.20,-0.29 2.19,0.05 2.18,0.41 2.05,0.75 1.93,1.09 1.70,1.37 1.48,1.65 1.18,1.84 0.87,2.04 0.52,2.12 0.18,2.21 -0.17,2.18 -0.53,2.15 -0.86,2.01 -1.19,1.87 -1.46,1.63 -1.73,1.39 -1.90,1.07 -2.08,0.76 -2.15,0.41 -2.21,0.05 -2.17,-0.29 -2.12,-0.65 -1.96,-0.97 -1.80,-1.29 -1.54,-1.54 -1.29,-1.80 -0.97,-1.96 -0.65,-2.12 -0.29,-2.17 0.06,-2.21 0.41,-2.15 0.76,-2.08 1.07,-1.90 1.39,-1.73 1.63,-1.46 1.87,-1.19 2.01,-0.86 2.15,-0.53 2.18,-0.17 2.21,0.18 2.12,0.52 2.03,0.87 1.84,1.18 1.65,1.48 1.37,1.70 1.09,1.93 0.75,2.05 0.41,2.18 0.05,2.19 -0.30,2.20 -0.64,2.09 -0.98,1.98 -1.27,1.77 -1.57,1.56 -1.57,1.57 -1.57,1.57 -1.73,1.35 -1.90,1.14 -2.01,0.90 -2.12,0.66 -2.16,0.39 -2.21,0.13 -2.20,-0.13 -2.18,-0.40 -2.10,-0.65 -2.02,-0.91 -1.88,-1.14 -1.74,-1.36 -1.55,-1.55 -1.36,-1.74 -1.14,-1.88 -0.91,-2.02 -0.65,-2.10 -0.40,-2.18 -0.13,-2.20 0.13,-2.21 0.39,-2.16 0.66,-2.12 0.90,-2.01 1.14,-1.90 1.35,-1.73 1.57,-1.57 1.57,-1.57 L 1.57,-1.57 Z"></path></g><g transform="translate(155.04887432808982 84) rotate(0 0.00004999999998744897 0.00005000000000165983)" stroke="none"><path fill="#e03131" d="M 1.57,-1.57 Q 1.57,-1.57 1.77,-1.27 1.98,-0.98 2.09,-0.64 2.20,-0.29 2.19,0.05 2.18,0.41 2.05,0.75 1.93,1.09 1.70,1.37 1.48,1.65 1.18,1.84 0.87,2.04 0.52,2.12 0.18,2.21 -0.17,2.18 -0.53,2.15 -0.86,2.01 -1.19,1.87 -1.46,1.63 -1.73,1.39 -1.90,1.07 -2.08,0.76 -2.15,0.41 -2.21,0.05 -2.17,-0.29 -2.12,-0.65 -1.96,-0.97 -1.80,-1.29 -1.54,-1.54 -1.29,-1.80 -0.97,-1.96 -0.65,-2.12 -0.29,-2.17 0.06,-2.21 0.41,-2.15 0.76,-2.08 1.07,-1.90 1.39,-1.73 1.63,-1.46 1.87,-1.19 2.01,-0.86 2.15,-0.53 2.18,-0.17 2.21,0.18 2.12,0.52 2.03,0.87 1.84,1.18 1.65,1.48 1.37,1.70 1.09,1.93 0.75,2.05 0.41,2.18 0.05,2.19 -0.30,2.20 -0.64,2.09 -0.98,1.98 -1.27,1.77 -1.57,1.56 -1.57,1.57 -1.57,1.57 -1.73,1.35 -1.90,1.14 -2.01,0.90 -2.12,0.66 -2.16,0.39 -2.21,0.13 -2.20,-0.13 -2.18,-0.40 -2.10,-0.65 -2.02,-0.91 -1.88,-1.14 -1.74,-1.36 -1.55,-1.55 -1.36,-1.74 -1.14,-1.88 -0.91,-2.02 -0.65,-2.10 -0.40,-2.18 -0.13,-2.20 0.13,-2.21 0.39,-2.16 0.66,-2.12 0.90,-2.01 1.14,-1.90 1.35,-1.73 1.57,-1.57 1.57,-1.57 L 1.57,-1.57 Z"></path></g><g transform="translate(155.04887432808982 84) rotate(0 0.00004999999998744897 0.00005000000000165983)" stroke="none"><path fill="#e03131" d="M 1.57,-1.57 Q 1.57,-1.57 1.77,-1.27 1.98,-0.98 2.09,-0.64 2.20,-0.29 2.19,0.05 2.18,0.41 2.05,0.75 1.93,1.09 1.70,1.37 1.48,1.65 1.18,1.84 0.87,2.04 0.52,2.12 0.18,2.21 -0.17,2.18 -0.53,2.15 -0.86,2.01 -1.19,1.87 -1.46,1.63 -1.73,1.39 -1.90,1.07 -2.08,0.76 -2.15,0.41 -2.21,0.05 -2.17,-0.29 -2.12,-0.65 -1.96,-0.97 -1.80,-1.29 -1.54,-1.54 -1.29,-1.80 -0.97,-1.96 -0.65,-2.12 -0.29,-2.17 0.06,-2.21 0.41,-2.15 0.76,-2.08 1.07,-1.90 1.39,-1.73 1.63,-1.46 1.87,-1.19 2.01,-0.86 2.15,-0.53 2.18,-0.17 2.21,0.18 2.12,0.52 2.03,0.87 1.84,1.18 1.65,1.48 1.37,1.70 1.09,1.93 0.75,2.05 0.41,2.18 0.05,2.19 -0.30,2.20 -0.64,2.09 -0.98,1.98 -1.27,1.77 -1.57,1.56 -1.57,1.57 -1.57,1.57 -1.73,1.35 -1.90,1.14 -2.01,0.90 -2.12,0.66 -2.16,0.39 -2.21,0.13 -2.20,-0.13 -2.18,-0.40 -2.10,-0.65 -2.02,-0.91 -1.88,-1.14 -1.74,-1.36 -1.55,-1.55 -1.36,-1.74 -1.14,-1.88 -0.91,-2.02 -0.65,-2.10 -0.40,-2.18 -0.13,-2.20 0.13,-2.21 0.39,-2.16 0.66,-2.12 0.90,-2.01 1.14,-1.90 1.35,-1.73 1.57,-1.57 1.57,-1.57 L 1.57,-1.57 Z"></path></g><g transform="translate(155.04887432808982 84) rotate(0 0.00004999999998744897 0.00005000000000165983)" stroke="none"><path fill="#e03131" d="M 1.57,-1.57 Q 1.57,-1.57 1.77,-1.27 1.98,-0.98 2.09,-0.64 2.20,-0.29 2.19,0.05 2.18,0.41 2.05,0.75 1.93,1.09 1.70,1.37 1.48,1.65 1.18,1.84 0.87,2.04 0.52,2.12 0.18,2.21 -0.17,2.18 -0.53,2.15 -0.86,2.01 -1.19,1.87 -1.46,1.63 -1.73,1.39 -1.90,1.07 -2.08,0.76 -2.15,0.41 -2.21,0.05 -2.17,-0.29 -2.12,-0.65 -1.96,-0.97 -1.80,-1.29 -1.54,-1.54 -1.29,-1.80 -0.97,-1.96 -0.65,-2.12 -0.29,-2.17 0.06,-2.21 0.41,-2.15 0.76,-2.08 1.07,-1.90 1.39,-1.73 1.63,-1.46 1.87,-1.19 2.01,-0.86 2.15,-0.53 2.18,-0.17 2.21,0.18 2.12,0.52 2.03,0.87 1.84,1.18 1.65,1.48 1.37,1.70 1.09,1.93 0.75,2.05 0.41,2.18 0.05,2.19 -0.30,2.20 -0.64,2.09 -0.98,1.98 -1.27,1.77 -1.57,1.56 -1.57,1.57 -1.57,1.57 -1.73,1.35 -1.90,1.14 -2.01,0.90 -2.12,0.66 -2.16,0.39 -2.21,0.13 -2.20,-0.13 -2.18,-0.40 -2.10,-0.65 -2.02,-0.91 -1.88,-1.14 -1.74,-1.36 -1.55,-1.55 -1.36,-1.74 -1.14,-1.88 -0.91,-2.02 -0.65,-2.10 -0.40,-2.18 -0.13,-2.20 0.13,-2.21 0.39,-2.16 0.66,-2.12 0.90,-2.01 1.14,-1.90 1.35,-1.73 1.57,-1.57 1.57,-1.57 L 1.57,-1.57 Z"></path></g><g transform="translate(155.04887432808982 86) rotate(0 -3.5 33.5)" stroke="none"><path fill="#e03131" d="M 2.65,0 Q 2.65,0 2.66,1.15 2.68,2.3 1.53,1.91 0.38,1.52 0.37,0.09 0.36,-1.32 1.75,-3.01 3.15,-4.70 4.53,-4.94 5.92,-5.18 6.47,-6.77 7.02,-8.36 7.40,-8.53 7.77,-8.70 8.18,-8.77 8.58,-8.85 8.99,-8.82 9.40,-8.80 9.79,-8.68 10.18,-8.55 10.54,-8.34 10.89,-8.13 11.18,-7.84 11.47,-7.55 11.68,-7.20 11.90,-6.85 12.02,-6.46 12.14,-6.07 12.17,-5.66 12.19,-5.25 12.12,-4.84 12.04,-4.44 11.88,-4.06 11.71,-3.69 11.46,-3.36 11.20,-3.04 10.88,-2.79 10.56,-2.53 8.85,-5.31 7.15,-8.09 7.52,-8.26 7.89,-8.43 8.29,-8.50 8.70,-8.58 9.11,-8.55 9.52,-8.53 9.91,-8.41 10.30,-8.29 10.65,-8.08 11.00,-7.87 11.29,-7.58 11.58,-7.29 11.79,-6.94 12.01,-6.59 12.13,-6.20 12.25,-5.80 12.28,-5.40 12.30,-4.99 12.23,-4.58 12.15,-4.18 11.99,-3.81 11.82,-3.43 11.57,-3.11 11.31,-2.79 10.99,-2.53 10.67,-2.28 9.23,-1.95 7.79,-1.61 5.89,-2.10 4.00,-2.58 2.38,-3.45 0.76,-4.31 -0.26,-3.87 -1.29,-3.44 -2.85,-3.07 -4.41,-2.71 -4.22,-3.79 -4.02,-4.86 -3.39,-3.79 -2.75,-2.71 -2.00,-1.56 -1.25,-0.42 -0.44,0.37 0.35,1.16 0.79,2.19 1.23,3.21 1.73,4.22 2.23,5.24 2.75,6.76 3.27,8.29 3.45,9.70 3.62,11.11 3.63,12.68 3.65,14.25 3.65,15.75 3.65,17.26 3.13,19.15 2.60,21.04 2.33,22.75 2.07,24.47 1.45,25.38 0.83,26.29 1.25,27.29 1.67,28.29 1.66,29.78 1.66,31.26 1.13,33.15 0.61,35.04 0.63,36.18 0.66,37.32 0.66,38.79 0.65,40.26 0.62,41.38 0.59,42.50 0.09,43.77 -0.39,45.04 -0.36,46.18 -0.33,47.32 -0.64,48.89 -0.94,50.45 -1.55,51.37 -2.15,52.28 -1.74,53.29 -1.33,54.29 -1.63,56.37 -1.94,58.45 -2.54,59.37 -3.15,60.29 -2.73,61.29 -2.32,62.29 -2.32,63.77 -2.33,65.26 -2.33,66.76 -2.33,68.26 -2.63,70.35 -2.93,72.45 -3.54,73.37 -4.14,74.29 -4.92,75.59 -5.69,76.88 -8.13,76.89 -10.58,76.90 -12.03,76.19 -13.49,75.47 -14.94,74.63 -16.39,73.79 -17.25,72.90 -18.12,72.02 -18.72,70.37 -19.31,68.73 -19.48,67.30 -19.66,65.88 -19.36,64.20 -19.06,62.52 -18.46,61.60 -17.86,60.68 -17.30,59.61 -16.73,58.54 -17.21,57.13 -17.70,55.72 -17.16,53.82 -16.63,51.93 -16.12,49.92 -15.61,47.90 -15.34,46.21 -15.08,44.52 -14.46,43.60 -13.84,42.68 -13.32,41.16 -12.80,39.63 -12.76,38.47 -12.73,37.32 -12.41,35.91 -12.08,34.51 -11.46,33.60 -10.84,32.68 -7.63,31.98 -4.43,31.27 -3.92,32.59 -3.42,33.90 -3.37,35.05 -3.31,36.21 -3.78,38.40 -4.25,40.60 -4.31,41.89 -4.36,43.19 -4.37,44.72 -4.38,46.25 -4.39,47.54 -4.41,48.83 -4.90,50.82 -5.39,52.81 -5.39,54.06 -5.39,55.32 -5.42,56.91 -5.45,58.50 -5.94,59.76 -6.43,61.02 -6.40,62.17 -6.37,63.32 -6.67,64.88 -6.97,66.44 -6.95,66.07 -6.94,65.69 -7.00,66.13 -7.05,66.56 -7.21,66.97 -7.36,67.38 -7.61,67.74 -7.86,68.10 -8.19,68.38 -8.52,68.67 -8.91,68.88 -9.29,69.08 -9.72,69.18 -10.14,69.28 -10.58,69.28 -11.02,69.28 -11.44,69.17 -11.87,69.07 -12.25,68.86 -12.64,68.66 -12.97,68.37 -13.29,68.08 -13.54,67.72 -13.79,67.36 -13.94,66.95 -14.09,66.54 -14.15,66.10 -14.20,65.67 -11.40,64.16 -8.60,62.65 -9.95,63.04 -11.30,63.44 -10.47,62.57 -9.64,61.69 -9.35,60.58 -9.06,59.46 -9.08,59.83 -9.10,60.21 -9.04,59.77 -8.98,59.33 -8.81,58.92 -8.64,58.51 -8.38,58.15 -8.12,57.80 -7.78,57.51 -7.44,57.22 -7.04,57.03 -6.65,56.83 -6.21,56.74 -5.78,56.64 -5.34,56.65 -4.89,56.66 -4.47,56.78 -4.04,56.90 -3.65,57.11 -3.26,57.33 -2.94,57.63 -2.62,57.93 -2.37,58.30 -2.13,58.67 -1.98,59.09 -1.84,59.51 -1.79,59.95 -1.75,60.39 -4.32,59.55 -6.89,58.71 -7.29,58.59 -7.70,58.47 -7.62,58.03 -7.53,57.59 -7.35,57.19 -7.17,56.78 -6.90,56.43 -6.62,56.08 -6.27,55.81 -5.92,55.53 -5.52,55.35 -5.11,55.17 -4.67,55.09 -4.23,55.01 -3.79,55.04 -3.35,55.06 -2.92,55.19 -2.50,55.33 -2.12,55.56 -1.74,55.79 -1.42,56.10 -1.11,56.42 -0.88,56.80 -0.65,57.18 -0.51,57.60 -0.38,58.03 -0.35,58.47 -0.33,58.91 -0.31,60.10 -0.30,61.30 -0.35,61.74 -0.40,62.18 -0.56,62.60 -0.72,63.02 -0.97,63.38 -1.22,63.75 -1.55,64.05 -1.89,64.34 -2.28,64.55 -2.68,64.76 -3.11,64.87 -3.54,64.98 -3.99,64.98 -4.43,64.98 -4.87,64.87 -5.30,64.77 -5.70,64.56 -6.09,64.35 -6.43,64.06 -6.76,63.76 -7.01,63.40 -7.27,63.03 -7.43,62.61 -7.59,62.20 -7.64,61.75 -7.70,61.31 -7.69,59.71 -7.68,58.11 -7.67,57.50 -7.67,56.89 -7.61,56.46 -7.56,56.02 -7.40,55.60 -7.25,55.19 -6.99,54.82 -6.74,54.46 -6.41,54.17 -6.08,53.87 -5.69,53.67 -5.30,53.46 -4.87,53.36 -4.44,53.25 -3.99,53.25 -3.55,53.25 -3.12,53.36 -2.69,53.46 -2.30,53.67 -1.91,53.87 -1.58,54.17 -1.25,54.46 -1.00,54.82 -0.74,55.19 -0.59,55.60 -0.43,56.02 -0.38,56.46 -0.32,56.90 -0.31,57.64 -0.30,58.38 -0.36,58.82 -0.41,59.27 -0.57,59.68 -0.73,60.10 -0.98,60.46 -1.23,60.83 -1.56,61.13 -1.90,61.42 -2.29,61.63 -2.69,61.83 -3.12,61.94 -3.55,62.05 -4.00,62.05 -4.44,62.05 -4.87,61.94 -5.30,61.83 -5.70,61.63 -6.09,61.42 -6.43,61.12 -6.76,60.83 -7.01,60.46 -7.26,60.10 -7.42,59.68 -7.58,59.26 -7.63,58.82 -7.69,58.38 -8.05,56.56 -8.41,54.73 -8.60,53.60 -8.79,52.47 -9.13,50.81 -9.47,49.15 -9.51,47.98 -9.56,46.81 -10.03,45.44 -10.50,44.08 -10.55,42.93 -10.60,41.79 -10.61,40.26 -10.62,38.74 -10.62,37.24 -10.63,35.73 -10.33,34.64 -10.03,33.55 -9.43,32.63 -8.83,31.72 -8.94,30.60 -9.04,29.48 -8.81,28.40 -8.58,27.32 -8.38,26.77 -8.18,26.21 -7.81,25.75 -7.45,25.29 -6.95,24.97 -6.45,24.65 -5.88,24.50 -5.31,24.36 -4.72,24.40 -4.13,24.45 -3.59,24.68 -3.04,24.91 -2.60,25.30 -2.16,25.69 -1.87,26.21 -1.57,26.72 -1.46,27.30 -1.35,27.88 -1.42,28.46 -1.50,29.05 -1.76,29.58 -2.02,30.11 -2.43,30.53 -2.85,30.95 -3.38,31.22 -3.91,31.48 -4.49,31.56 -5.08,31.65 -5.66,31.54 -6.24,31.43 -6.75,31.14 -7.27,30.85 -7.67,30.41 -8.06,29.98 -8.30,29.43 -8.53,28.89 -8.59,28.30 -8.64,27.72 -8.50,27.14 -8.36,26.57 -8.04,26.07 -7.72,25.57 -7.27,25.20 -6.81,24.83 -6.25,24.62 -5.70,24.41 -5.11,24.39 -4.52,24.37 -3.95,24.55 -3.39,24.72 -2.91,25.06 -2.43,25.40 -2.08,25.88 -1.73,26.36 -1.56,26.92 -1.38,27.48 -1.39,28.08 -1.41,28.67 -1.41,28.67 -1.41,28.67 -1.89,30.27 -2.38,31.87 -2.54,33.27 -2.70,34.66 -3.04,36.20 -3.37,37.73 -3.37,39.22 -3.37,40.70 -3.78,41.72 -4.19,42.75 -3.59,43.66 -2.98,44.57 -2.69,45.62 -2.40,46.67 -2.34,48.10 -2.28,49.53 -1.79,51.85 -1.29,54.18 -0.80,56.28 -0.30,58.38 -0.36,58.82 -0.41,59.26 -0.57,59.68 -0.73,60.10 -0.98,60.46 -1.23,60.83 -1.56,61.12 -1.90,61.42 -2.29,61.63 -2.69,61.83 -3.12,61.94 -3.55,62.05 -3.99,62.05 -4.44,62.05 -4.87,61.94 -5.30,61.83 -5.70,61.63 -6.09,61.42 -6.43,61.13 -6.76,60.83 -7.01,60.46 -7.26,60.10 -7.42,59.68 -7.58,59.27 -7.63,58.82 -7.69,58.38 -7.68,57.64 -7.67,56.90 -7.61,56.46 -7.56,56.02 -7.40,55.60 -7.25,55.19 -6.99,54.82 -6.74,54.46 -6.41,54.17 -6.08,53.87 -5.69,53.67 -5.30,53.46 -4.87,53.36 -4.44,53.25 -4.00,53.25 -3.55,53.25 -3.12,53.36 -2.69,53.46 -2.30,53.67 -1.91,53.87 -1.58,54.17 -1.25,54.46 -1.00,54.82 -0.74,55.19 -0.59,55.60 -0.43,56.02 -0.38,56.46 -0.32,56.89 -0.32,57.50 -0.31,58.11 -0.30,59.70 -0.30,61.29 -0.35,61.74 -0.40,62.18 -0.56,62.60 -0.72,63.02 -0.97,63.38 -1.22,63.75 -1.55,64.05 -1.89,64.34 -2.28,64.55 -2.68,64.76 -3.11,64.87 -3.54,64.98 -3.99,64.98 -4.43,64.98 -4.87,64.87 -5.30,64.77 -5.70,64.56 -6.09,64.35 -6.43,64.06 -6.76,63.76 -7.01,63.40 -7.27,63.03 -7.43,62.61 -7.59,62.20 -7.64,61.75 -7.70,61.31 -7.70,59.89 -7.70,58.47 -7.62,58.03 -7.54,57.60 -7.35,57.19 -7.17,56.78 -6.90,56.43 -6.62,56.08 -6.27,55.81 -5.92,55.53 -5.52,55.35 -5.11,55.17 -4.67,55.09 -4.24,55.01 -3.79,55.04 -3.35,55.06 -2.92,55.19 -2.50,55.33 -2.12,55.56 -1.74,55.79 -1.42,56.10 -1.11,56.42 -0.88,56.80 -0.65,57.18 -0.51,57.60 -0.38,58.03 -0.35,58.47 -0.33,58.91 -0.39,60.03 -0.45,61.15 -1.28,62.67 -2.11,64.18 -5.20,63.42 -8.29,62.66 -8.70,61.43 -9.10,60.21 -9.04,59.77 -8.98,59.33 -8.81,58.92 -8.64,58.51 -8.38,58.15 -8.12,57.80 -7.78,57.51 -7.44,57.22 -7.04,57.03 -6.65,56.83 -6.21,56.74 -5.78,56.64 -5.34,56.65 -4.90,56.66 -4.47,56.78 -4.04,56.90 -3.65,57.11 -3.26,57.33 -2.94,57.63 -2.62,57.93 -2.37,58.30 -2.13,58.67 -1.98,59.09 -1.84,59.51 -1.79,59.95 -1.75,60.39 -2.06,61.15 -2.37,61.91 -2.62,63.45 -2.87,64.98 -3.72,65.84 -4.56,66.69 -6.16,67.56 -7.75,68.44 -9.81,68.76 -11.88,69.08 -9.41,67.38 -6.94,65.69 -7.00,66.13 -7.05,66.56 -7.21,66.97 -7.36,67.38 -7.61,67.74 -7.86,68.10 -8.19,68.38 -8.52,68.67 -8.91,68.88 -9.29,69.08 -9.72,69.18 -10.14,69.28 -10.58,69.28 -11.02,69.28 -11.44,69.17 -11.87,69.07 -12.25,68.86 -12.64,68.66 -12.97,68.37 -13.29,68.08 -13.54,67.72 -13.79,67.36 -13.94,66.95 -14.09,66.54 -14.15,66.10 -14.20,65.67 -13.90,64.43 -13.60,63.19 -13.55,62.04 -13.51,60.88 -13.02,59.45 -12.54,58.01 -12.56,56.60 -12.58,55.19 -12.53,54.03 -12.49,52.88 -12.01,51.38 -11.53,49.89 -11.57,48.57 -11.61,47.24 -11.60,45.68 -11.59,44.11 -11.56,42.84 -11.53,41.57 -11.08,39.64 -10.64,37.72 -10.56,36.50 -10.48,35.28 -7.92,36.09 -5.36,36.91 -5.50,38.29 -5.64,39.67 -6.16,41.19 -6.69,42.71 -7.18,44.20 -7.68,45.69 -8.05,46.91 -8.43,48.12 -8.92,49.61 -9.41,51.10 -9.50,52.35 -9.60,53.60 -9.95,54.67 -10.30,55.74 -10.31,57.31 -10.33,58.88 -10.51,60.33 -10.69,61.77 -11.17,62.72 -11.65,63.67 -12.42,64.64 -13.20,65.60 -12.22,67.14 -11.24,68.68 -10.26,69.18 -9.28,69.68 -8.18,70.32 -7.09,70.96 -8.38,70.61 -9.66,70.26 -9.66,68.76 -9.66,67.26 -9.66,65.75 -9.66,64.25 -9.66,62.73 -9.65,61.20 -9.61,60.05 -9.57,58.91 -9.11,57.58 -8.66,56.25 -8.65,54.73 -8.64,53.20 -8.60,52.05 -8.56,50.91 -8.10,49.57 -7.64,48.23 -7.62,47.16 -7.61,46.09 -7.48,44.74 -7.36,43.39 -7.00,42.32 -6.65,41.25 -6.65,39.74 -6.64,38.23 -6.63,37.16 -6.61,36.09 -6.49,34.74 -6.37,33.39 -6.01,31.82 -5.66,30.25 -5.65,28.73 -5.65,27.20 -5.60,26.05 -5.56,24.91 -5.08,23.50 -4.61,22.09 -4.49,20.74 -4.36,19.39 -4.01,17.83 -3.65,16.26 -3.66,14.78 -3.66,13.29 -3.22,12.32 -2.77,11.34 -3.26,9.85 -3.75,8.35 -4.44,7.49 -5.14,6.62 -5.39,5.54 -5.65,4.46 -7.02,2.99 -8.38,1.52 -9.16,-0.00 -9.93,-1.52 -10.15,-3.44 -10.37,-5.37 -10.03,-6.38 -9.68,-7.39 -7.84,-8.45 -5.99,-9.52 -4.74,-10.01 -3.49,-10.49 -1.84,-10.51 -0.20,-10.52 0.94,-10.46 2.09,-10.41 3.54,-9.63 4.98,-8.85 6.06,-8.47 7.15,-8.09 7.52,-8.26 7.89,-8.43 8.29,-8.50 8.70,-8.58 9.11,-8.55 9.52,-8.53 9.91,-8.41 10.30,-8.29 10.65,-8.08 11.00,-7.87 11.29,-7.58 11.58,-7.29 11.79,-6.94 12.01,-6.59 12.13,-6.20 12.25,-5.80 12.28,-5.40 12.30,-4.99 12.23,-4.58 12.15,-4.18 11.99,-3.81 11.82,-3.43 11.57,-3.11 11.32,-2.79 10.99,-2.53 10.67,-2.28 8.85,-5.32 7.02,-8.36 7.40,-8.53 7.77,-8.70 8.18,-8.77 8.58,-8.85 8.99,-8.82 9.40,-8.80 9.79,-8.68 10.18,-8.55 10.54,-8.34 10.89,-8.13 11.18,-7.84 11.47,-7.55 11.68,-7.20 11.90,-6.85 12.02,-6.46 12.14,-6.07 12.17,-5.66 12.19,-5.25 12.12,-4.84 12.04,-4.44 11.88,-4.06 11.71,-3.69 11.46,-3.36 11.20,-3.04 10.88,-2.79 10.56,-2.53 10.62,-2.23 10.69,-1.92 9.94,-0.93 9.20,0.06 7.61,0.50 6.02,0.94 5.73,2.39 5.44,3.85 4.82,4.78 4.20,5.72 2.30,6.30 0.41,6.87 -1.13,4.58 -2.68,2.3 -2.66,1.15 -2.65,0 -2.61,-0.31 -2.57,-0.63 -2.46,-0.93 -2.34,-1.23 -2.16,-1.49 -1.98,-1.75 -1.74,-1.96 -1.50,-2.18 -1.22,-2.32 -0.93,-2.47 -0.62,-2.55 -0.31,-2.63 0.00,-2.63 0.31,-2.63 0.62,-2.55 0.94,-2.47 1.22,-2.32 1.50,-2.18 1.74,-1.96 1.98,-1.75 2.16,-1.49 2.34,-1.23 2.46,-0.93 2.57,-0.63 2.61,-0.31 2.65,0.00 2.65,0.00 L 2.65,0 Z"></path></g></svg>